<svg xmlns="http://www.w3.org/2000/svg" viewBox="0 0 120 120" role="img" aria-label="Sarah">
  <defs>
    <linearGradient id="bg" x1="0%" y1="0%" x2="100%" y2="100%">
      <stop offset="0%" stop-color="#7c3aed"/>
      <stop offset="100%" stop-color="#3b82f6"/>
    </linearGradient>
    <linearGradient id="hair" x1="0%" y1="0%" x2="0%" y2="100%">
      <stop offset="0%" stop-color="#4c1d95"/>
      <stop offset="100%" stop-color="#6d28d9"/>
    </linearGradient>
    <linearGradient id="skin" x1="0%" y1="0%" x2="0%" y2="100%">
      <stop offset="0%" stop-color="#fde8d8"/>
      <stop offset="100%" stop-color="#f5c4a8"/>
    </linearGradient>
    <linearGradient id="blazer" x1="0%" y1="0%" x2="100%" y2="100%">
      <stop offset="0%" stop-color="#5b21b6"/>
      <stop offset="100%" stop-color="#4338ca"/>
    </linearGradient>
  </defs>
  <circle cx="60" cy="60" r="58" fill="url(#bg)"/>
  <ellipse cx="60" cy="118" rx="42" ry="28" fill="url(#blazer)"/>
  <path d="M28 78c4-18 18-30 32-30s28 12 32 30c-8 10-20 16-32 16s-24-6-32-16z" fill="url(#blazer)"/>
  <path d="M34 52c2-16 12-26 26-26s24 10 26 26c-2 2-8 4-14 4h-24c-6 0-12-2-14-4z" fill="url(#hair)"/>
  <path d="M38 48c6-8 14-12 22-12s16 4 22 12c-4 6-12 10-22 10s-18-4-22-10z" fill="#6d28d9" opacity="0.35"/>
  <ellipse cx="60" cy="58" rx="22" ry="24" fill="url(#skin)"/>
  <ellipse cx="50" cy="56" rx="3.2" ry="4" fill="#312e81"/>
  <ellipse cx="70" cy="56" rx="3.2" ry="4" fill="#312e81"/>
  <circle cx="51" cy="55" r="1" fill="#fff" opacity="0.85"/>
  <circle cx="71" cy="55" r="1" fill="#fff" opacity="0.85"/>
  <path d="M52 66c4 4 12 4 16 0" fill="none" stroke="#c2410c" stroke-width="2" stroke-linecap="round"/>
  <path d="M46 62c2 1 4 1 6 0M68 62c2 1 4 1 6 0" fill="none" stroke="#f59e0b" stroke-width="1.5" stroke-linecap="round" opacity="0.45"/>
  <path d="M44 78c6 8 16 12 16 12s10-4 16-12" fill="none" stroke="#fff" stroke-width="3" stroke-linecap="round"/>
  <circle cx="88" cy="88" r="14" fill="#fff" opacity="0.18"/>
  <path d="M82 88h12M88 82v12" stroke="#fff" stroke-width="2.5" stroke-linecap="round" opacity="0.55"/>
  <circle cx="32" cy="34" r="3" fill="#fff" opacity="0.25"/>
  <circle cx="92" cy="28" r="2" fill="#fff" opacity="0.2"/>
</svg>
